<?xml version="1.0" encoding="UTF-8"?>
<!DOCTYPE svg PUBLIC "-//W3C//DTD SVG 1.1//EN" "http://www.w3.org/Graphics/SVG/1.1/DTD/svg11.dtd">
<!-- Creator: CorelDRAW 2018 (64-Bit) -->
<svg xmlns="http://www.w3.org/2000/svg" xml:space="preserve" width="8.5375in" height="2.27031in" version="1.1" style="shape-rendering:geometricPrecision; text-rendering:geometricPrecision; image-rendering:optimizeQuality; fill-rule:evenodd; clip-rule:evenodd"
viewBox="0 0 8537.5 2270.31"
 xmlns:xlink="http://www.w3.org/1999/xlink">
 <defs>
  <style type="text/css">
   <![CDATA[
    .fil1 {fill:#EEA32D}
    .fil2 {fill:#1E93AA}
    .fil0 {fill:#005159}
    .fil5 {fill:#1E93AA;fill-rule:nonzero}
    .fil4 {fill:#005159;fill-rule:nonzero}
    .fil3 {fill:#FEFEFE;fill-opacity:0.149020}
   ]]>
  </style>
 </defs>
 <g id="Layer_x0020_1">
  <metadata id="CorelCorpID_0Corel-Layer"/>
  <g id="_2663870802176">
   <path class="fil0" d="M1831.61 2036.13c126.99,126.99 22.6,234.18 -72.07,234.18l-1587.4 0c-94.68,0 -172.15,-77.47 -172.15,-172.15l0 -1549.37c0,-134.71 122.2,-222.07 246.19,-98.08l1585.43 1585.42z"/>
   <path class="fil1" d="M2270.31 463.82c0,-107.33 -89.41,-108.51 -129.41,-68.51l-670.81 670.81c-40.01,40.01 -40.01,105.48 0,145.5l654.74 654.74c56.93,56.93 145.48,42.2 145.48,-62.58l0 -1339.95z"/>
   <path class="fil2" d="M1923.67 187.37c101.61,-101.61 18.08,-187.37 -57.66,-187.37l-1270.1 0c-75.76,0 -137.74,61.98 -137.74,137.74l0 1239.67c0,107.78 97.78,177.68 196.98,78.48l1268.52 -1268.52z"/>
   <path class="fil3" d="M458.17 662.69l495.09 495.09 -298.11 298.11c-99.21,99.2 -196.98,29.3 -196.98,-78.48l0 -714.72z"/>
   <path class="fil4" d="M7548.95 1393.79l0 -228.3 519.04 0c40.2,0 63.89,-9.33 71.07,-28 7.19,-18.66 10.77,-46.66 10.77,-83.99l0 -174.45c-8.62,-43.07 -38.05,-64.61 -88.31,-64.61l-221.83 0c-169.42,0 -267.06,-73.94 -292.91,-221.83l0 -323.06c0,-150.76 87.59,-226.14 262.76,-226.14l727.95 0 0 228.3 -501.81 0c-66.05,0 -99.08,35.18 -99.08,105.53l0 146.45c7.19,40.2 41.64,60.3 103.38,60.3l193.83 0c87.59,0 157.22,16.87 208.91,50.61 51.68,33.75 83.28,88.66 94.76,164.76l0 413.52c0,53.13 -16.87,96.55 -50.62,130.3 -33.74,33.74 -86.51,50.61 -158.3,50.61l-779.63 0z"/>
   <path class="fil4" d="M5787.21 43.41l1320.22 0c48.81,0 91.53,9.33 128.15,28 36.61,18.67 67.12,43.44 91.53,74.3 24.41,30.88 42.35,66.77 53.84,107.69 11.49,40.92 17.23,83.64 17.23,128.15l0 1012.24 -381.2 0 0 -1044.54c-5.74,-50.26 -30.87,-75.39 -75.37,-75.39l-68.92 0c-61.74,0 -92.61,33.03 -92.61,99.08l0 1020.85 -376.9 0 0 -1051.01c-7.19,-17.22 -17.94,-30.5 -32.31,-39.84 -14.36,-9.33 -29.07,-16.51 -44.15,-21.54 -15.07,-5.02 -29.8,-7.89 -44.15,-8.61 -14.35,-0.72 -24.41,-1.08 -30.15,-1.08 -58.87,0 -88.3,33.74 -88.3,101.23l0 1020.85 -376.9 0 0 -1350.37z"/>
   <polygon class="fil4" points="5261.71,1393.79 5261.71,43.41 5638.61,43.41 5638.61,1393.79 "/>
   <path class="fil4" d="M4594.07 1165.49c-45.94,0 -77.53,-10.05 -94.76,-30.15 -17.23,-20.11 -25.84,-50.97 -25.84,-92.61l0 -137.83c0,-28.72 5.38,-50.97 16.15,-66.77 10.77,-15.79 34.81,-23.69 72.15,-23.69l101.23 0 0 -230.44 -305.83 0c-34.46,0 -67.84,4.31 -100.15,12.93 -32.3,8.62 -60.67,20.46 -85.07,35.53 -24.41,15.07 -43.79,33.39 -58.15,54.93 -14.36,21.53 -21.54,45.94 -21.54,73.22l0 447.97c11.48,61.74 40.92,108.05 88.3,138.92 47.38,30.87 119.89,46.31 217.52,46.31l730.11 0 0 -1057.47c0,-90.46 -31.59,-161.89 -94.76,-214.29 -63.18,-52.41 -149.32,-78.62 -258.44,-78.62l-661.19 0 0 228.3 486.74 0c30.15,0 54.2,2.52 72.15,7.54 17.94,5.03 31.95,12.2 41.99,21.54 10.06,9.33 17.24,21.53 21.54,36.62 4.31,15.07 7.9,32.65 10.77,52.76l0 652.57c0,30.15 -6.46,58.15 -19.39,83.99 -12.92,25.85 -39.48,38.77 -79.69,38.77l-53.84 0z"/>
   <polygon class="fil4" points="2822.54,1393.79 2822.54,43.41 3199.44,43.41 3199.44,1393.79 "/>
   <path class="fil5" d="M5807.7 1770.67l0 485.7 85.88 0 0 -485.7 -85.88 0zm375.19 78.13l0 -78.13 -254.12 0 0 78.13 84.47 0 0 407.57 85.88 0 0 -407.57 83.77 0zm173.87 375.89c22.53,24.87 55.14,37.31 97.85,37.31 43.17,0 76.49,-12.2 99.96,-36.6 23.46,-24.4 35.2,-59.13 35.2,-104.18 0,-37.54 -7.63,-67.57 -22.88,-90.1 -15.25,-22.52 -39.77,-41.3 -73.56,-56.31l-31.68 -14.08c-18.3,-7.98 -31.33,-17.01 -39.07,-27.1 -7.74,-10.09 -11.62,-23.58 -11.62,-40.48 0,-37.07 15.72,-55.61 47.17,-55.61 16.89,0 28.98,5.52 36.25,16.54 7.27,11.03 11.15,27.57 11.61,49.63l79.54 0c-1.41,-45.52 -13.02,-80.36 -34.85,-104.53 -21.82,-24.17 -52.67,-36.25 -92.56,-36.25 -40.36,0 -72.39,12.2 -96.09,36.6 -23.7,24.41 -35.55,57.02 -35.55,97.85 0,34.73 6.92,62.41 20.76,83.06 13.85,20.65 36.49,38.01 67.93,52.09l33.09 14.78c20.65,9.39 35.31,19.59 43.99,30.62 8.69,11.03 13.02,25.93 13.02,44.7 0,22.52 -3.87,38.95 -11.61,49.27 -7.74,10.33 -20.06,15.49 -36.96,15.49 -16.89,0 -29.68,-5.63 -38.36,-16.89 -8.68,-11.26 -13.49,-28.86 -14.43,-52.8l-81.65 0c0.47,46.46 11.97,82.13 34.49,107zm367.45 -375.89l130.93 0 0 -78.13 -216.81 0 0 485.7 216.81 0 0 -77.43 -130.93 0 0 -130.93 112.63 0 0 -77.43 -112.63 0 0 -121.78zm306.2 212.59l61.24 194.98 90.1 0 -72.5 -211.18c20.18,-10.79 34.73,-26.98 43.65,-48.57 8.92,-21.59 13.37,-48.57 13.37,-80.95 0,-50.69 -9.97,-87.52 -29.92,-110.52 -19.94,-23 -53.85,-34.49 -101.72,-34.49l-132.34 0 0 485.7 86.58 0 0 -194.98 41.53 0zm-41.53 -77.43l0 -135.86 45.05 0c17.83,0 29.92,5.63 36.25,16.89 6.33,11.26 9.5,28.16 9.5,50.69 0,22.52 -3.28,39.54 -9.85,51.03 -6.57,11.5 -18.54,17.25 -35.9,17.25l-45.05 0zm211.88 -213.29l109.11 485.7 89.4 0 109.11 -485.7 -95.03 0 -59.13 363.22 -58.43 -363.22 -95.03 0zm344.22 0l0 485.7 85.88 0 0 -485.7 -85.88 0zm181.61 455.79c24.4,23.7 57.48,35.55 99.25,35.55 40.83,0 74.26,-11.85 100.31,-35.55 26.05,-23.7 39.07,-59.01 39.07,-105.94l0 -13.37 -85.88 0 0 12.67c0,21.11 -4.57,37.07 -13.72,47.87 -9.15,10.79 -21.47,16.19 -36.96,16.19 -34.73,0 -52.09,-23.7 -52.09,-71.09l0 -194.99c0,-25.34 4.11,-44.35 12.32,-57.02 8.21,-12.67 21.47,-19.01 39.77,-19.01 15.49,0 27.81,5.28 36.96,15.84 9.15,10.56 13.72,26.87 13.72,48.92l0 14.08 86.58 0 0 -14.78c0,-47.87 -12.43,-83.54 -37.31,-107 -24.87,-23.46 -57.49,-35.2 -97.85,-35.2 -42.23,0 -76.26,11.85 -102.07,35.55 -25.81,23.7 -38.72,58.54 -38.72,104.53l0 218.92c0,45.52 12.2,80.13 36.61,103.83zm381.53 -377.65l130.93 0 0 -78.13 -216.81 0 0 485.7 216.81 0 0 -77.43 -130.93 0 0 -130.93 112.63 0 0 -77.43 -112.63 0 0 -121.78zm196.39 375.89c22.53,24.87 55.14,37.31 97.85,37.31 43.17,0 76.49,-12.2 99.96,-36.6 23.46,-24.4 35.2,-59.13 35.2,-104.18 0,-37.54 -7.63,-67.57 -22.88,-90.1 -15.25,-22.52 -39.77,-41.3 -73.56,-56.31l-31.68 -14.08c-18.3,-7.98 -31.33,-17.01 -39.07,-27.1 -7.74,-10.09 -11.62,-23.58 -11.62,-40.48 0,-37.07 15.72,-55.61 47.17,-55.61 16.89,0 28.98,5.52 36.25,16.54 7.27,11.03 11.15,27.57 11.61,49.63l79.54 0c-1.41,-45.52 -13.02,-80.36 -34.85,-104.53 -21.82,-24.17 -52.67,-36.25 -92.56,-36.25 -40.36,0 -72.39,12.2 -96.09,36.6 -23.7,24.41 -35.55,57.02 -35.55,97.85 0,34.73 6.92,62.41 20.76,83.06 13.85,20.65 36.49,38.01 67.93,52.09l33.09 14.78c20.65,9.39 35.31,19.59 43.99,30.62 8.69,11.03 13.02,25.93 13.02,44.7 0,22.52 -3.87,38.95 -11.61,49.27 -7.74,10.33 -20.06,15.49 -36.96,15.49 -16.89,0 -29.68,-5.63 -38.36,-16.89 -8.68,-11.26 -13.49,-28.86 -14.43,-52.8l-81.65 0c0.47,46.46 11.97,82.13 34.49,107z"/>
   <polygon class="fil4" points="2822.54,1213.25 3644.53,43.41 4021.43,43.41 3072.59,1393.79 2822.54,1393.79 "/>
   <polygon class="fil4" points="4035.85,1393.79 3615.37,695.62 3412.98,983.66 3658.95,1393.79 "/>
  </g>
 </g>
</svg>
